<mxfile host="app.diagrams.net" modified="2023-09-20T01:08:21.168Z" agent="Mozilla/5.0 (Windows NT 10.0; Win64; x64) AppleWebKit/537.36 (KHTML, like Gecko) Chrome/116.0.0.0 Safari/537.36" etag="RFFJBAaF7WJVRNHw7jqS" version="21.7.5" type="github">
  <diagram id="C5RBs43oDa-KdzZeNtuy" name="Page-1">
    <mxGraphModel dx="1290" dy="566" grid="1" gridSize="10" guides="1" tooltips="1" connect="1" arrows="1" fold="1" page="1" pageScale="1" pageWidth="827" pageHeight="1169" math="0" shadow="0">
      <root>
        <mxCell id="WIyWlLk6GJQsqaUBKTNV-0" />
        <mxCell id="WIyWlLk6GJQsqaUBKTNV-1" parent="WIyWlLk6GJQsqaUBKTNV-0" />
        <mxCell id="GqdHczyn4eLgBiBCfAKI-9" style="edgeStyle=orthogonalEdgeStyle;rounded=0;orthogonalLoop=1;jettySize=auto;html=1;entryX=0.5;entryY=0;entryDx=0;entryDy=0;" edge="1" parent="WIyWlLk6GJQsqaUBKTNV-1" source="GqdHczyn4eLgBiBCfAKI-1" target="GqdHczyn4eLgBiBCfAKI-2">
          <mxGeometry relative="1" as="geometry" />
        </mxCell>
        <mxCell id="GqdHczyn4eLgBiBCfAKI-1" value="START" style="ellipse;whiteSpace=wrap;html=1;" vertex="1" parent="WIyWlLk6GJQsqaUBKTNV-1">
          <mxGeometry x="160" y="60" width="120" height="80" as="geometry" />
        </mxCell>
        <mxCell id="GqdHczyn4eLgBiBCfAKI-20" style="edgeStyle=orthogonalEdgeStyle;rounded=0;orthogonalLoop=1;jettySize=auto;html=1;entryX=0.5;entryY=0;entryDx=0;entryDy=0;" edge="1" parent="WIyWlLk6GJQsqaUBKTNV-1" source="GqdHczyn4eLgBiBCfAKI-2" target="GqdHczyn4eLgBiBCfAKI-11">
          <mxGeometry relative="1" as="geometry" />
        </mxCell>
        <mxCell id="GqdHczyn4eLgBiBCfAKI-2" value="r : int&lt;br&gt;pi = 3.14 , keliling, luas: double" style="shape=hexagon;perimeter=hexagonPerimeter2;whiteSpace=wrap;html=1;fixedSize=1;" vertex="1" parent="WIyWlLk6GJQsqaUBKTNV-1">
          <mxGeometry x="110" y="200" width="220" height="80" as="geometry" />
        </mxCell>
        <mxCell id="GqdHczyn4eLgBiBCfAKI-19" style="edgeStyle=orthogonalEdgeStyle;rounded=0;orthogonalLoop=1;jettySize=auto;html=1;entryX=0.5;entryY=0;entryDx=0;entryDy=0;" edge="1" parent="WIyWlLk6GJQsqaUBKTNV-1" source="GqdHczyn4eLgBiBCfAKI-11" target="GqdHczyn4eLgBiBCfAKI-18">
          <mxGeometry relative="1" as="geometry" />
        </mxCell>
        <mxCell id="GqdHczyn4eLgBiBCfAKI-11" value="INPUT r" style="shape=parallelogram;perimeter=parallelogramPerimeter;whiteSpace=wrap;html=1;fixedSize=1;" vertex="1" parent="WIyWlLk6GJQsqaUBKTNV-1">
          <mxGeometry x="120" y="340" width="200" height="60" as="geometry" />
        </mxCell>
        <mxCell id="GqdHczyn4eLgBiBCfAKI-22" style="edgeStyle=orthogonalEdgeStyle;rounded=0;orthogonalLoop=1;jettySize=auto;html=1;entryX=0.5;entryY=0;entryDx=0;entryDy=0;" edge="1" parent="WIyWlLk6GJQsqaUBKTNV-1" source="GqdHczyn4eLgBiBCfAKI-18" target="GqdHczyn4eLgBiBCfAKI-21">
          <mxGeometry relative="1" as="geometry" />
        </mxCell>
        <mxCell id="GqdHczyn4eLgBiBCfAKI-18" value="keliling = 2*pi*r&lt;br&gt;luas = pi*r*r" style="rounded=0;whiteSpace=wrap;html=1;" vertex="1" parent="WIyWlLk6GJQsqaUBKTNV-1">
          <mxGeometry x="120" y="480" width="200" height="60" as="geometry" />
        </mxCell>
        <mxCell id="GqdHczyn4eLgBiBCfAKI-21" value="PRINT keliling, luas" style="shape=parallelogram;perimeter=parallelogramPerimeter;whiteSpace=wrap;html=1;fixedSize=1;" vertex="1" parent="WIyWlLk6GJQsqaUBKTNV-1">
          <mxGeometry x="120" y="610" width="200" height="60" as="geometry" />
        </mxCell>
      </root>
    </mxGraphModel>
  </diagram>
</mxfile>
